<svg id="Layer_2" data-name="Layer 2" xmlns="http://www.w3.org/2000/svg" viewBox="0 0 1769.79 659.74"><defs><style>.cls-1{fill:none;stroke:#000;stroke-miterlimit:10;stroke-width:0.75px;}</style></defs><title>contact</title><path class="cls-1" d="M81,891c-2-22,2-44,8-65,20-64,51-119,85-177,50-88,104-165,171-242l9-12c29-34,56-64,94-89s75-54,122-48c26,4,38,30,34,54-9,49-49,80-79,115H462c23-25,46-48,65-77a30.79,30.79,0,0,0,3-19c-3-9-13-9-21-7-41,7-65,40-90,70-18,20-34,38-50,59-1,1-3,2-4,3-20,25-38,47-57,73-17,25-34,45-49,71-1,2-3,2-4,4a1576.12,1576.12,0,0,0-80,137c-1,2,0,3-1,5-5,10-9,21-8,33,1,6,6,10,11,8,29-11,46-36,63-61,30-45,53-88,84-128,21-7,43-9,65-14-13,18-27,34-39,54-1,2-3,2-4,4-19,30-35,56-55,85-1,2-1,3-2,5-5,7-10,13-15,20-1,2-1,3-2,5-35,47-65,91-109,129-1,1-3,1-4,2-10,9-21,16-32,22-10,5-20,8-31,5-10-4-13-15-15-24Z" transform="translate(-80.1 -256.83)"/><path class="cls-1" d="M335,774c-4-16-1-33,5-49,4-12,8-24,15-36,6-10,10-19,16-28,27-39,52-73,83-108l9-12c42-46,82-89,125-134,1-1,1-3,2-4,9-9,16-18,24-28,14-16,27-30,42-45,12-11,24-19,37-28,25-15,54-12,76,6,18,15,30,36,32,59,2,16-4,30-12,44a330.31,330.31,0,0,1-22,30c-9,10-17,19-27,28-47,45-94,84-136,135-55,69-101,142-179,185-2,1-5,1-7,3-1,1-3,1-4,1-1,1-2,2-3,2-16,5-33,11-50,7-9-3-19-8-22-18,0-1-2-1-2-2,0-3-2-5-2-8Zm142-92c16-16,31-32,44-52,9-13,19-22,28-35,1-1,3-2,4-3,48-58,103-103,153-156,15-21,45-42,36-71-8-11-24-14-36-9-18,8-32,22-42,38-37,41-75,80-115,120-3,4-6,7-9,11-30,30-55,60-82,94-13,17-25,34-35,53-4,9-8,20-1,28a15.17,15.17,0,0,0,13,3,83.85,83.85,0,0,0,42-21Z" transform="translate(-80.1 -256.83)"/><path class="cls-1" d="M850,336c16,6,32,11,47,20,4,2,3,8,4,13a7.58,7.58,0,0,1,2,4c4,22,6,42,3,63a83.31,83.31,0,0,1-4,15c-12,49-41,85-71,126-3,5-5,9-8,14l-3,3c-3,6-7,12-10,18,29-33,63-59,94-91,8-9,15-17,22-26,6-8,10-16,15-25,1-2,1-5,3-7,1-2,1-5,2-7,0-1,2-2,2-3,1-5,3-10,3-15,0-2,2-5,2-7,2-18,2-36-3-54,13,6,26,14,40,19,2,4,2,9,2,13,4,21,4,42-2,62v3c-5,14-11,28-19,41-7,12-16,21-25,31-25,26-50,48-75,74a409.52,409.52,0,0,0-35,47c-3,6-6,11-9,17-12,26-20,54-21,83-25-3-49-5-74-8-2-13-3-26-2-39,2-31,8-62,23-90,1-1,1-3,1-4a109.3,109.3,0,0,1,8-15c15-30,34-55,55-84,9-13,17-25,24-38-14,13-27,26-41,38-49,45-97,87-128,146l-3,3c-2,8-8,15-11,23-5,13-11,26-15,40a116.27,116.27,0,0,0-4,18c-23-1-46,1-69,3,2-6,3-13,5-19,0-1,2-2,2-3,5-16,12-31,19-46,2-4,5-8,7-13,11-20,23-37,37-55a674.1,674.1,0,0,1,91-94c1-2,2-4,4-5,3-2,5-4,8-6,4-5,9-9,14-13,1-2,2-4,4-5,15-12,26-24,39-37,1-1,2-4,3-5,11-10,18-22,27-34a35.52,35.52,0,0,0,4-9c14-25,20-52,16-80Z" transform="translate(-80.1 -256.83)"/><path class="cls-1" d="M1013,407c40,21,81,40,121,61,7,20,9,42,9,63-14-7-28-14-43-20-2,49-28,90-58,129-10,14-19,28-28,43-6,11-11,21-14,33-2,8-3,16-5,24-1,5,0,9,0,14-1,16,0,33,6,49-25-4-50-9-75-14-7-48,6-95,36-134,31-39,67-71,86-116,0-1,2-1,2-2,5-15,10-30,11-45-15-7-29-14-44-21,3-21,1-43-4-64Z" transform="translate(-80.1 -256.83)"/><path class="cls-1" d="M1215,756c-24-2-48-6-72-10-5,26-1,54,10,78-12,0-25-3-37-3-3,0-7-2-10-2-11,0-21-2-32-4-2-13-4-25-4-38a219.79,219.79,0,0,1,6-37c6-18,14-33,24-49,29-43,62-78,72-130,1-8,2-15,3-22,2-19-2-37-5-55,16,9,33,14,49,22,13,28,20,57,26,88,4,29,5,56,8,84,2,9,3,19,5,28,3,9,5,18,9,27,13,29,33,52,60,71l6,6c8,5,15,10,23,15-27,1-55,4-82,3-20-15-36-33-50-55-3-6-6-11-9-17Zm-11-43c-4-42,5-84,3-126,0-2-1-3-1-5-1,16-7,31-13,45-1,2,0,3-1,5l-36,72c16,4,32,5,48,9Z" transform="translate(-80.1 -256.83)"/><path class="cls-1" d="M1411,804c-20-4-37-11-55-21-23-14-33-39-39-64-9-34-8-66-13-100a184.57,184.57,0,0,1-4-23c-1-16-2-34,6-49,4-7,11-10,19-9,13,2,23,7,34,13,19,11,35,25,51,40,22,20,37,45,55,68-17,1-34-1-51-1-14-26-26-64-61-66-8,3-11,12-9,19,16,54,23,114,67,154,24,15,55,17,82,7,5-2,8-9,3-14-13-11-28-20-38-33q33-1.5,66-6a359.14,359.14,0,0,0,47,27c9,4,23,11,21,24-1,6-5,9-10,13-27,18-57,22-87,25-28,4-57,3-84-4Z" transform="translate(-80.1 -256.83)"/><path class="cls-1" d="M1414,564c42,7,83,12,126,17,6,0,10,4,15,8,12,8,24,13,37,19l-51,3a475.36,475.36,0,0,0,85,48,368.63,368.63,0,0,0,86,25c46,7,91,8,136,2-25,14-52,25-78,36-36,0-71-2-106-12h-4a339.2,339.2,0,0,1-81-34c-2-1-3-3-5-4-19-10-34-23-51-36-1-1-1-2-2-3a262.19,262.19,0,0,1-25-22c-16-1-33-1-49-3-3-5-6-8-9-13-8-11-16-21-24-31Z" transform="translate(-80.1 -256.83)"/></svg>