<svg id="Layer_2" data-name="Layer 2" xmlns="http://www.w3.org/2000/svg" viewBox="0 0 1058.66 497.79"><defs><style>.cls-1{fill:none;stroke:#000;stroke-miterlimit:10;stroke-width:0.75px;}</style></defs><title>things</title><path class="cls-1" d="M403.24,290C444.38,261.17,480.47,237.9,514,218.1c17.56-9.41,31.46-17.75,44.9-25.33,11.2-5.65,20.65-10.44,30.24-15.41,7-3,15.69-4.9,20.84-9.13,17.83,16.34,27.38,30.6,35.88,45.12,2.55,3.88,6.07,7.75,5.93,11.44a738,738,0,0,0-72.25,18.08c7.56,30.95,1.56,58.35-9.83,88.36-18.48,45.08-44.8,92.1-64.05,143.54-19.64,51.46-32.2,107.34-31.85,170.59-14-1.07-26.87-9-39.75-12.5,1.62-63,12.14-122.24,26.81-179.88,14.81-51,32.33-97.73,39.85-144.14,1.47-12.08,3.94-23.23,1.3-35.25a716.61,716.61,0,0,0-98.75,55.35q0-19.5,0-39Z" transform="translate(-402.87 -155.42)"/><path class="cls-1" d="M545.94,652.83A354.07,354.07,0,0,1,557.3,541.15C570,497.29,589.68,461.86,613.46,428c29.82-44,63.2-77.82,84.73-114.18,24.42-43.54,24.83-88.36-48.74-155.36,18.89-1.06,35.72-4.82,59.87-1,85,77.08,73.42,124,39.91,166.93,20.89,2.16,40,6.2,58,10.45a109.07,109.07,0,0,0,9.19-9.35c31.6-37.18,46.27-79.62-20.38-152,24.82,5.53,51.69,16.37,77,27.15,36.38,55.52,26.17,90.81,1.81,120.52-25.05,29.58-64.25,53.57-101.61,83.31C727.68,441.5,685.13,484,671.59,554c-.09,2.56-1,3.86-1.88,6.48-.93,5.22-.84,10.54-1.46,16-.76,2.74-1.57,4.13-1.38,6.89-1,11.11-.49,22.68.78,34.77-12.38,4.71-25.2,8-37.72,14.28-2.63-33.62-.32-62.35,7.1-89.64C657.56,467.68,707.77,422.34,754.58,381c-16.09-1.85-33.12-5-52-4.53C640.17,439.07,573.73,518.64,585,646.71c-12.44,3.14-26.07,6.12-39.08,6.12Z" transform="translate(-402.87 -155.42)"/><path class="cls-1" d="M948.39,243.27a266.46,266.46,0,0,1,47.47,43.36c-3.34,19.82-13,35.12-24.79,50.84q-4.49,4.56-9.28,8.94c-1.6,1.46-1.29,2.37-2.92,3.81-5.35,5.1-11.71,9.92-17.52,14.76-28.06,20.2-56.79,36.58-88.9,55.16-1.88,1.39-2.45,2.15-4.32,3.56-57.61,37.08-105,84.16-98.85,170.5-12.83,2.73-26.72,5.61-39.88,8.62-2.49-52.8,11.7-94.31,36.67-127.55,39.45-51.13,96.23-79.46,145-113.9,14.79-10.65,27.9-21.67,38.43-34.63,3.32-4.64,6.14-8.56,9.72-13.35,8-13.91,13.66-28.08,12.62-46.49-.82-8.23-1.36-15.73-3.44-23.63Z" transform="translate(-402.87 -155.42)"/><path class="cls-1" d="M1022.85,334.17a181.47,181.47,0,0,1,5.88,44.41c-28.85,36.28-70,63.87-95.84,99.06-11.42,16.15-19.83,33.76-18.73,55.6,4.1-14.33,13.06-24.19,23.42-35.05,1.15-1.59,1.34-2.44,2.54-4,26-24.92,56.23-45.86,88.06-69.85-.22,10.52,2.85,19.74,6.7,29.77-24.84,22.4-48.73,42-64.08,67.79-.77,1.69-.7,2.6-1.41,4.33-14.07,24.67-13.95,53.4-.39,91.45-8.65-.27-19.14-3.22-28.54-4.85-4.75-.15-11.29-1.69-16-1.85-2.83-.09-7.43-1.58-11-3l-4.68-.17c-23.26-34-29.57-61.44-26.71-86a84.62,84.62,0,0,1,12.63-36c5.79-8.12,10.9-16,18.88-23.25a291.92,291.92,0,0,1,20.5-20.9c-20,13.17-38.85,24.35-56.49,39.88-29.33,27.58-47.5,61.5-38,114.47-16.13-4.57-29.89-3.63-44.3-4-4.06-30.47,1.34-55.12,10.57-76.72,17.29-35.75,47.75-59.71,83.31-79.86,49.39-28.81,102.1-56.62,133.71-101.37Z" transform="translate(-402.87 -155.42)"/><path class="cls-1" d="M1133.09,547.24a5.05,5.05,0,0,1,1.56-5.89c2.78-5.8-3.61-12.85-11.22-15-16.42-4.36-37-11-48.26-2.05-11.05,20.73-12.74,44.44-2.57,73.42.82,1.09,1.66,2.2,2.51,3.31,9.08,8,19.31,9.55,27.3,10.94,12.1,1.59,22.28,1.95,31.72.2,4.22-.89,8.54-2.83,7.19-7a154.31,154.31,0,0,0-7.52-24.78c-10.64-.6-22.76-2.27-33.64-3.92-.41-5.7-3.73-12.35-1.59-16.68,20.08,2.34,41.29,5.46,62,5.66,9.59-.38,18.63.06,28.58-.38-.25,9.76,2.14,19.93,6.31,30.6q1.41,4.35,3.23,8.83c3.19,7,1.26,12-2.27,15-11.56,10.07-30.21,12.12-50.37,14-15,.85-32.36-.65-49.56-2.26-19.09-2.77-42.55-7.28-67.39-24.68a40.79,40.79,0,0,1-12.72-15.24c-10.26-35.43-.32-60.67,16.7-84.39,6.39-7.53,16.77-11.19,27.24-11,34.09,1.77,67.17,13.71,108.59,22.95,5.72,1.07,12.68,3,17.78,7.35,7.71,7,4.67,15.38,2.09,22.19-19.29.91-37,.84-55.67-1.2Z" transform="translate(-402.87 -155.42)"/><path class="cls-1" d="M1303.46,635.12c-16.28-3.22-37.33-8.82-54.09-22.11-5.28-4.08-9.57-10-10.4-14.79,20.58.63,37.87-3.64,58.35-4.19.32,5.65,3.65,13.37,11.3,16.42,27.3,12.12,52.35,12.41,69.31,1.76.88-1,2.67-2.91,4.58-4.84,4.52-9.71-.33-20.33-13.18-27.88-3.2-1.89-7.54-2.82-10.74-4.7-33-11.13-67.33-14-98.69-22.53-16.51-4.76-25.36-16.25-18.72-25.56,3.23-5.11,6.77-10.21,13.11-14.5A754.14,754.14,0,0,1,1321.77,471c33.63-19.85,62.14-43.1,96.82-66.8a189.45,189.45,0,0,1,18-9.75c6-2,11.89-3.07,16.39.1,12.1,10.8,7.71,26.68,5.94,40.84,0,1-4.85,2.67-6.48,4.86-21.09,18.7-45.27,33.6-68.21,46.49,1.66-6.66,4.88-13.52-.8-19.55-2.85-2.54-8.77-2-11.77-.82-21,8.27-37.37,19.18-53,29.61-11.5,7.61-22.11,22.71-3.57,27.76,26.93,6.73,57.62,4.8,87.3,13.12,10.92,3.4,22,7.79,31.57,13.31,6.41,4.66,12.75,9.37,16,15.22,14.59,26.47,1.22,60.84-24.65,73.6-16,6.93-31.29,10-51.21,7.86-10-1-20.06-2.11-31.3-3.2-12-2.12-22.07-4.25-34.39-6.44-1.07,0-3-1.06-4.87-2.1Z" transform="translate(-402.87 -155.42)"/></svg>